<svg viewBox="0 0 45 46" fill="none" xmlns="http://www.w3.org/2000/svg">
<g filter="url(#filter0_i_3422_2521)">
<ellipse cx="22.3827" cy="22.7129" rx="22.3827" ry="22.7129" fill="#EBFFFC"/>
</g>
<path d="M7.43262 23.0188C7.43262 22.4072 7.67919 21.8205 8.11809 21.388C8.55699 20.9555 9.15226 20.7125 9.77296 20.7125L28.3085 20.7125L22.1612 14.6546C21.7478 14.2174 21.5227 13.6391 21.5334 13.0416C21.5441 12.4441 21.7898 11.874 22.2185 11.4515C22.6473 11.0289 23.2258 10.7869 23.8321 10.7763C24.4384 10.7658 25.0252 10.9876 25.4689 11.3949L35.6104 21.389C36.0487 21.8215 36.2948 22.4077 36.2948 23.0188C36.2948 23.63 36.0487 24.2162 35.6104 24.6486L25.4689 34.6427C25.0252 35.0501 24.4384 35.2719 23.8321 35.2614C23.2258 35.2508 22.6473 35.0088 22.2185 34.5862C21.7898 34.1637 21.5441 33.5936 21.5334 32.9961C21.5227 32.3986 21.7478 31.8203 22.1612 31.3831L28.3085 25.3252L9.77296 25.3252C9.15226 25.3252 8.55699 25.0822 8.11809 24.6497C7.67919 24.2171 7.43262 23.6305 7.43262 23.0188Z" fill="#41EAD4"/>
<defs>
<filter id="filter0_i_3422_2521" x="0" y="0" width="44.7656" height="49.4258" filterUnits="userSpaceOnUse" color-interpolation-filters="sRGB">
<feFlood flood-opacity="0" result="BackgroundImageFix"/>
<feBlend mode="normal" in="SourceGraphic" in2="BackgroundImageFix" result="shape"/>
<feColorMatrix in="SourceAlpha" type="matrix" values="0 0 0 0 0 0 0 0 0 0 0 0 0 0 0 0 0 0 127 0" result="hardAlpha"/>
<feOffset dy="4"/>
<feGaussianBlur stdDeviation="2"/>
<feComposite in2="hardAlpha" operator="arithmetic" k2="-1" k3="1"/>
<feColorMatrix type="matrix" values="0 0 0 0 0 0 0 0 0 0 0 0 0 0 0 0 0 0 0.25 0"/>
<feBlend mode="normal" in2="shape" result="effect1_innerShadow_3422_2521"/>
</filter>
</defs>
</svg>